/* XPM */
static const char *pause_sc[]={
"16 16 13 1",
". c None",
"i c #00002c",
"c c #00002d",
"j c #000058",
"a c #000059",
"f c #000066",
"h c #00006f",
"b c #000070",
"g c #0000cb",
"d c #0000cc",
"e c #0000ff",
"# c #7b7b7b",
"k c #d4d4d4",
"................",
"................",
"..#abbc..cbba#..",
"..#deef..feeg#..",
"..#deef..feeg#..",
"..#deef..feeg#..",
"..#deef..feeg#..",
"..#deef..feeg#..",
"..#deef..feeg#..",
"..#deef..feeg#..",
"..#deef..feeg#..",
"..#deef..feeg#..",
"..#deef..feeg#..",
"..#ahhi..ihhj#..",
"..k.............",
"................"};
