/* XPM */
static char *read[]={
"16 16 3 1",
"# c None",
"a c #000000",
". c #00ff00",
"................",
"..############..",
".#aaaaaaaaa####.",
".##aaaaaaaaa###.",
".###aa####aa###.",
".###aa####aa###.",
".###aa###aaa###.",
".###aaaaaaa####.",
".###aaaaa######.",
".###aaaaa######.",
".###aa#aaa#####.",
".###aa##aa#####.",
".##aaa##aaa####.",
".#aaaa###aaaa##.",
"..############..",
"................"};
