/* XPM */
static const char *record_sc[]={
"16 16 8 1",
". c None",
"# c #000000",
"f c #6f0000",
"a c #700000",
"e c #d70000",
"d c #d80000",
"b c #ea0000",
"c c #ff0000",
"................",
"......####......",
".....#aaaa#.....",
"....##bccb##....",
"...#cccccccc#...",
"..#dcccccccce#..",
".#accccccccccf#.",
".#accccccccccf#.",
".#accccccccccf#.",
".#accccccccccf#.",
"..#dcccccccce#..",
"..##cccccccc##..",
"....##bccb###...",
".....##ff##.....",
"......####......",
"................"};
