/* XPM */
static char *RTZ[]={
"16 16 44 1",
". c None",
"J c #000084",
"k c #000085",
"h c #0000a3",
"K c #0000b8",
"n c #0000cc",
"t c #0000d6",
"C c #0000dd",
"l c #0000e1",
"G c #0000e2",
"v c #0000f3",
"z c #0000f7",
"m c #0000ff",
"# c #0404b6",
"s c #0b0b91",
"F c #10108d",
"p c #121282",
"g c #17178e",
"y c #1a1a61",
"N c #3a3a54",
"B c #3c3c6c",
"u c #42425c",
"E c #484870",
"f c #4e4e6d",
"o c #525277",
"r c #585858",
"I c #5d5d6d",
"b c #626262",
"j c #65656a",
"c c #7b7b7b",
"A c #8d8d8d",
"x c #969696",
"a c #adadad",
"H c #aeaeae",
"P c #b1b1b1",
"i c #b7b7b7",
"e c #b8b8b8",
"M c #b9b9b9",
"q c #c7c7c7",
"O c #c8c8c8",
"D c #cbcbcb",
"w c #d1d1d1",
"L c #d7d7d7",
"d c #dadada",
"................",
"................",
".##........abc..",
".##.....defghc..",
".##....ijklmnc..",
".##..aoplmmmnc..",
".##qrstmmmmmnc..",
".##u#vmmmmmmnc..",
".##wxy#zmmmmnc..",
".##...ABCmmmnc..",
".##....DEFGmnc..",
".##......HIJKc..",
".##.......LMNc..",
"............OP..",
"................",
"................"};
