/* XPM */
static const char *start_pic[]={
"32 32 3 1",
". c None",
"# c #303030",
"a c #ff0000",
"................................",
"................................",
"..#.............................",
"..###...........................",
"..#####.........................",
"..#######.......................",
"..###a#####.....................",
"..###aa######...................",
"..###aaaa######.................",
"..###aaaaaa######...............",
"..###aaaaaaaa######.............",
"..###aaaaaaaaaa######...........",
"..###aaaaaaaaaaaa######.........",
"..###aaaaaaaaaaaaaa######.......",
"..###aaaaaaaaaaaaaaaa######.....",
"..###aaaaaaaaaaaaaaaaaa######...",
"..###aaaaaaaaaaaaaaaaaa######...",
"..###aaaaaaaaaaaaaaaa######.....",
"..###aaaaaaaaaaaaaa######.......",
"..###aaaaaaaaaaaa######.........",
"..###aaaaaaaaaa######...........",
"..###aaaaaaaa######.............",
"..###aaaaaa######...............",
"..###aaaa######.................",
"..###aa######...................",
"..#########.....................",
"..#######.......................",
"..#####.........................",
"..###...........................",
"..#.............................",
"................................",
"................................"};
