/* XPM */
static const char *play_sc[]={
"16 16 45 1",
". c None",
"J c #000084",
"k c #000085",
"c c #0000a3",
"I c #0000b8",
"h c #0000cc",
"p c #0000d6",
"B c #0000dd",
"j c #0000e1",
"E c #0000e2",
"t c #0000f3",
"w c #0000f7",
"i c #0000ff",
"x c #0404b6",
"q c #0b0b91",
"F c #10108d",
"n c #121282",
"d c #17178e",
"y c #1a1a61",
"M c #3a3a54",
"C c #3c3c6c",
"u c #42425c",
"G c #484870",
"e c #4e4e6d",
"o c #525277",
"r c #585858",
"K c #5d5d6d",
"a c #626262",
"l c #65656a",
"# c #7b7b7b",
"D c #8d8d8d",
"z c #969696",
"v c #9e9e9e",
"b c #adadad",
"L c #aeaeae",
"P c #b1b1b1",
"m c #b7b7b7",
"f c #b8b8b8",
"N c #b9b9b9",
"s c #c7c7c7",
"Q c #c8c8c8",
"H c #cbcbcb",
"A c #d1d1d1",
"O c #d7d7d7",
"g c #dadada",
"................",
"................",
"..#ab...........",
"..#cdefg........",
"..#hijklm.......",
"..#hiiijnob.....",
"..#hiiiiipqrs...",
"..#hiiiiiitcuv..",
"..#hiiiiwxyzA...",
"..#hiiiBCD......",
"..#hiEFGH.......",
"..#IJKL.........",
"..#MNO..........",
"..PQ............",
"................",
"................"};
