/* XPM */
static const char *stop_sc[]={
"16 16 7 1",
". c None",
"e c #000030",
"a c #000031",
"d c #00006f",
"b c #000070",
"c c #0000ff",
"# c #dadada",
"................",
".#..............",
"..abbbbbbbbbba..",
"..bccccccccccd..",
"..bccccccccccd..",
"..bccccccccccd..",
"..bccccccccccd..",
"..bccccccccccd..",
"..bccccccccccd..",
"..bccccccccccd..",
"..bccccccccccd..",
"..bccccccccccd..",
"..bccccccccccd..",
"..adddddddddde..",
"................",
"................"};
