/* XPM */
static const char *stop_pic[]={
"32 32 3 1",
". c None",
"# c #303030",
"a c #ff0000",
"................................",
"................................",
"................................",
"...##########################...",
"...##########################...",
"...##aaaaaaaaaaaaaaaaaaaaaa##...",
"...##aaaaaaaaaaaaaaaaaaaaaa##...",
"...##aaaaaaaaaaaaaaaaaaaaaa##...",
"...##aaaaaaaaaaaaaaaaaaaaaa##...",
"...##aaaaaaaaaaaaaaaaaaaaaa##...",
"...##aaaaaaaaaaaaaaaaaaaaaa##...",
"...##aaaaaaaaaaaaaaaaaaaaaa##...",
"...##aaaaaaaaaaaaaaaaaaaaaa##...",
"...##aaaaaaaaaaaaaaaaaaaaaa##...",
"...##aaaaaaaaaaaaaaaaaaaaaa##...",
"...##aaaaaaaaaaaaaaaaaaaaaa##...",
"...##aaaaaaaaaaaaaaaaaaaaaa##...",
"...##aaaaaaaaaaaaaaaaaaaaaa##...",
"...##aaaaaaaaaaaaaaaaaaaaaa##...",
"...##aaaaaaaaaaaaaaaaaaaaaa##...",
"...##aaaaaaaaaaaaaaaaaaaaaa##...",
"...##aaaaaaaaaaaaaaaaaaaaaa##...",
"...##aaaaaaaaaaaaaaaaaaaaaa##...",
"...##aaaaaaaaaaaaaaaaaaaaaa##...",
"...##aaaaaaaaaaaaaaaaaaaaaa##...",
"...##aaaaaaaaaaaaaaaaaaaaaa##...",
"...##aaaaaaaaaaaaaaaaaaaaaa##...",
"...##########################...",
"...##########################...",
"................................",
"................................",
"................................"};
