/* XPM */
static char *xlogo[]={
"32 32 6 1",
". c None",
"d c #303030",
"c c #585858",
"b c #808080",
"a c #a0a0a0",
"# c #c00000",
"............#######.............",
".........###.......###..........",
".......##.............##........",
"......#...#######.......#.......",
".....#.#########.###.....#......",
"....#.###.......##..#.....#.....",
"...#.##.#####.....#..#.....#....",
"..#.###......##....#..#.....#...",
"..####.........##...#..#....#...",
".###...#####.....#...#..#....#..",
".###..#a...a#....#....#..#...#..",
".##..#bb...bb#....#...#..#...#..",
"###.#bcc...ccb#...#....#.#....#.",
"##.#abcdd.ddcba#...#...#..#...#.",
"##.#...ddddd...#...#...#..#...#.",
"##.#....ddd....#...#...#..#...#.",
"##.#...ddddd...#...#...#..#...#.",
"##.#abcdd.ddcba#...#...#..#...#.",
"###.#bbc...cbb#...#....#..#...#.",
"###..#bb...bb#....#...#...#..#..",
".###..#a...a#....#....#..#...#..",
".#.#...#####.....#...#...#...#..",
".##.##.........##...#....#..#...",
"..#..###.....##....#....#...#...",
"...#..#.#####.....#....#...#....",
"....#..##.......##....#...#.....",
".....#...#######.....#...#......",
"......#.............#...#.......",
".......###.......###..##........",
".........########..###..........",
"............#######.............",
"................................"};
