/* XPM */
static char *xlogo2[]={
"32 32 3 1",
". c None",
"a c #000080",
"# c #c00000",
"........#...#...#...#...#....#..",
".....##..#...#...#..#...#....#..",
".......#..#...#..#..#...#....#..",
".....a..#..#..#..#..#...#....#..",
"....aa..#..#..#..#..#...#....#..",
"..aaaa..#..#..#..#..#...#....#..",
"..aaaa..#..#..#..#..#...#....#..",
"....aa..#..#..#..#..#...#....#..",
".....a..#..#..#..#..#...#....#..",
".......#..#...#..#..#...#....#..",
".....##.##...#...#..#...#....#..",
".....##.##...#...#..#...#....#..",
".......#..#...#..#..#...#....#..",
".....a..#..#..#..#..#...#....#..",
"....aa..#..#..#..#..#...#....#..",
"..aaaa..#..#..#..#..#...#....#..",
"..aaaa..#..#..#..#..#...#....#..",
"....aa..#..#..#..#..#...#....#..",
".....a..#..#..#..#..#...#....#..",
".......#..#...#..#..#...#....#..",
".....##.##...#...#..#...#....#..",
".....##.##...#...#..#...#....#..",
".......#..#...#..#..#...#....#..",
".....a..#..#..#..#..#...#....#..",
"....aa..#..#..#..#..#...#....#..",
"..aaaa..#..#..#..#..#...#....#..",
"..aaaa..#..#..#..#..#...#....#..",
"....aa..#..#..#..#..#...#....#..",
".....a..#..#..#..#..#...#....#..",
".......#..#...#..#..#...#....#..",
".....##..#...#...#..#...#....#..",
"........#...#...#...#...#....#.."};
